<?xml version="1.0" encoding="UTF-8"?>
<svg width="256" height="256" version="1.1"
     xmlns="http://www.w3.org/2000/svg"
     xmlns:xlink="http://www.w3.org/1999/xlink">
  <defs>
    <linearGradient id="Gradient" x1="0" x2="0" y1="0" y2="1">
      <stop offset="0%" style="stop-color:#8FF0A4;stop-opacity:1" />
      <stop offset="100%" style="stop-color:#26A269;stop-opacity:1" />
    </linearGradient>
    <filter id="alpha-to-white">
      <feColorMatrix in="SourceGraphic" type="matrix"
                     values="0 0 0 0 0 0 0 0 0 0 0 0 0 0 0 0 0 0 0.8 0"/>
    </filter>
    <g id="child-svg"><svg xmlns="http://www.w3.org/2000/svg" height="16px" viewBox="0 0 16 16" width="16px">
    <path d="m 6.003906 1 s -3 0 -3 3 v 5 s 0.042969 1.417969 0.027344 2 c 0 1 -0.535156 1.414062 -1.402344 2.121094 c -0.628906 0.488281 -0.773437 1.308594 -0.308594 1.699218 c 0.429688 0.351563 1.164063 0.300782 1.660157 -0.34375 l 1.019531 -1.476562 c 0.699219 -1.015625 0.984375 -1.875 1 -3 l 0.003906 -6 c 0 -1 0.996094 -1 0.996094 -1 v 6.574219 l 3.003906 -3.074219 v -2.5 c 0 -1 0.996094 -1 0.996094 -1 l 0.003906 2.5 l 1.996094 -2.035156 c 0.339844 -0.3125 0.503906 -0.464844 1 -0.464844 l 0.003906 1 l -4.003906 4 h 4 s 0.003906 1 -1 1 h -4 l -2 2 c 0 0.425781 0 2.007812 2 2.007812 l 4.003906 -0.007812 s 3 0 2.996094 -2.992188 v -9.007812 z m 0 0" fill="#2e3436" />
</svg></g>
  </defs>
  <rect
      width="256"
      height="256"
      fill="url(#Gradient)"
      ry="0"
      x="0"
      y="0" />
  <use xlink:href="#child-svg" filter="url(#alpha-to-white)"
       transform="matrix(8,0,0,8,64,64)" />
</svg>